# xmcd
# 
# Track frame offsets:
#     150
#     17142
#     33573
#     47869
#     70527
#     93093
#     114240
#     136829
#     153633
#     170262
#     186023
#     202364
#     221086
#     242778
#     260912
#     275094
# 
# Disc length: 3920
# 
# Revision: 1
# Processed by: cddbd v1.5.2PL0 Copyright (c) Steve Scherf et al.
# Submitted via: BonkEnc v1.0.8
# 
DISCID=ee0f4e10
DTITLE=Tim McGraw - Live Like You Were Dying
DYEAR=2004
DGENRE=Country
TTITLE0=How Bad Do You Want It
TTITLE1=My Old Friend
TTITLE2=Can't Tell Me Nothin'
TTITLE3=Old Town New
TTITLE4=Live Like You Were Dying
TTITLE5=Drugs Or Jesus
TTITLE6=Back When
TTITLE7=Something's Broken
TTITLE8=Open Season On My Heart
TTITLE9=Everybody Hates Me
TTITLE10=Walk Like A Man
TTITLE11=Blank Sheet Of Paper
TTITLE12=Just Be Your Tear
TTITLE13=Do You Want Fries With That
TTITLE14=Kill Myself
TTITLE15=We Carry On
EXTD=
EXTT0=
EXTT1=
EXTT2=
EXTT3=
EXTT4=
EXTT5=
EXTT6=
EXTT7=
EXTT8=
EXTT9=
EXTT10=
EXTT11=
EXTT12=
EXTT13=
EXTT14=
EXTT15=
PLAYORDER=
